<?xml version="1.0" encoding="UTF-8" standalone="no"?><!DOCTYPE svg PUBLIC "-//W3C//DTD SVG 1.1//EN" "http://www.w3.org/Graphics/SVG/1.1/DTD/svg11.dtd"><svg width="100%" height="100%" viewBox="0 0 150 48" version="1.1" xmlns="http://www.w3.org/2000/svg" xmlns:xlink="http://www.w3.org/1999/xlink" xml:space="preserve" xmlns:serif="http://www.serif.com/" style="fill-rule:evenodd;clip-rule:evenodd;stroke-linejoin:round;stroke-miterlimit:2;"><rect id="Artboard1" x="0" y="0" width="150" height="48"/><path d="M5.086,11.32l7.054,0l0,27.539c0,2 -0.39,3.621 -1.172,4.864c-0.781,1.242 -1.902,2.152 -3.363,2.73c-1.461,0.578 -3.207,0.867 -5.238,0.867l-1.43,0l0,-5.531l0.938,0c1.187,0 2.019,-0.254 2.496,-0.762c0.476,-0.507 0.715,-1.261 0.715,-2.261l-0,-27.446Zm3.539,-3.422c-1.063,0 -1.969,-0.351 -2.719,-1.054c-0.75,-0.703 -1.125,-1.555 -1.125,-2.555c-0,-1 0.375,-1.851 1.125,-2.555c0.75,-0.703 1.656,-1.054 2.719,-1.054c1.062,-0 1.972,0.347 2.73,1.043c0.758,0.695 1.137,1.55 1.137,2.566c-0,1 -0.379,1.852 -1.137,2.555c-0.758,0.703 -1.668,1.054 -2.73,1.054Z M40.991,47.32l-7.029,0l0,-13.99l-0.226,-0c-0.324,0.703 -0.794,1.41 -1.412,2.12c-0.618,0.709 -1.416,1.305 -2.395,1.787c-0.978,0.481 -2.185,0.722 -3.621,0.722c-2.003,0 -3.813,-0.519 -5.43,-1.556c-1.617,-1.038 -2.894,-2.56 -3.832,-4.566c-0.937,-2.006 -1.406,-4.462 -1.406,-7.37c0,-2.985 0.483,-5.477 1.45,-7.475c0.966,-1.998 2.256,-3.497 3.868,-4.498c1.613,-1.001 3.383,-1.502 5.31,-1.502c1.484,0 2.72,0.25 3.707,0.749c0.987,0.499 1.784,1.115 2.391,1.847c0.606,0.732 1.063,1.446 1.37,2.143l0.342,-0l-0,-4.411l6.913,0l-0,36Zm-12.518,-14.995c1.197,0 2.215,-0.329 3.056,-0.988c0.841,-0.658 1.481,-1.578 1.921,-2.759c0.441,-1.18 0.661,-2.558 0.661,-4.133c-0,-1.591 -0.219,-2.97 -0.655,-4.137c-0.437,-1.167 -1.076,-2.073 -1.916,-2.716c-0.841,-0.644 -1.863,-0.966 -3.067,-0.966c-1.227,-0 -2.257,0.333 -3.093,0.998c-0.836,0.665 -1.466,1.585 -1.891,2.759c-0.424,1.174 -0.636,2.528 -0.636,4.062c-0,1.533 0.214,2.894 0.642,4.082c0.428,1.189 1.062,2.119 1.901,2.791c0.839,0.672 1.865,1.007 3.077,1.007Z M56.531,38.035c-2.109,0 -3.976,-0.301 -5.603,-0.905c-1.626,-0.604 -2.953,-1.478 -3.982,-2.623c-1.029,-1.145 -1.695,-2.527 -1.999,-4.145l6.552,-1.126c0.341,1.218 0.941,2.132 1.798,2.74c0.858,0.609 2.005,0.913 3.44,0.913c1.339,0 2.398,-0.255 3.176,-0.766c0.778,-0.512 1.167,-1.159 1.167,-1.942c-0,-0.686 -0.277,-1.248 -0.829,-1.685c-0.553,-0.437 -1.406,-0.775 -2.56,-1.013l-4.511,-0.93c-2.526,-0.52 -4.414,-1.4 -5.664,-2.638c-1.249,-1.239 -1.873,-2.839 -1.873,-4.801c-0,-1.678 0.457,-3.122 1.373,-4.334c0.916,-1.211 2.197,-2.146 3.843,-2.803c1.646,-0.656 3.572,-0.985 5.778,-0.985c2.075,0 3.87,0.287 5.386,0.859c1.515,0.573 2.739,1.381 3.671,2.423c0.933,1.042 1.56,2.278 1.883,3.706l-6.237,1.098c-0.275,-0.895 -0.791,-1.626 -1.546,-2.193c-0.756,-0.568 -1.771,-0.852 -3.045,-0.852c-1.158,0 -2.127,0.244 -2.909,0.731c-0.782,0.486 -1.173,1.129 -1.173,1.927c0,0.657 0.253,1.213 0.758,1.668c0.505,0.455 1.375,0.812 2.611,1.07l4.707,0.937c2.536,0.512 4.422,1.352 5.66,2.519c1.238,1.167 1.857,2.687 1.857,4.559c-0,1.717 -0.502,3.22 -1.504,4.508c-1.002,1.288 -2.384,2.291 -4.145,3.008c-1.762,0.717 -3.788,1.075 -6.08,1.075Z M81.867,38.035c-2.109,0 -3.976,-0.301 -5.603,-0.905c-1.626,-0.604 -2.953,-1.478 -3.982,-2.623c-1.029,-1.145 -1.695,-2.527 -1.999,-4.145l6.552,-1.126c0.341,1.218 0.941,2.132 1.798,2.74c0.858,0.609 2.005,0.913 3.44,0.913c1.339,0 2.398,-0.255 3.176,-0.766c0.778,-0.512 1.167,-1.159 1.167,-1.942c-0,-0.686 -0.277,-1.248 -0.829,-1.685c-0.553,-0.437 -1.406,-0.775 -2.56,-1.013l-4.511,-0.93c-2.526,-0.52 -4.414,-1.4 -5.664,-2.638c-1.249,-1.239 -1.873,-2.839 -1.873,-4.801c-0,-1.678 0.457,-3.122 1.373,-4.334c0.915,-1.211 2.196,-2.146 3.843,-2.803c1.646,-0.656 3.572,-0.985 5.778,-0.985c2.075,0 3.87,0.287 5.386,0.859c1.515,0.573 2.738,1.381 3.671,2.423c0.932,1.042 1.56,2.278 1.883,3.706l-6.237,1.098c-0.275,-0.895 -0.791,-1.626 -1.546,-2.193c-0.756,-0.568 -1.771,-0.852 -3.045,-0.852c-1.158,0 -2.127,0.244 -2.909,0.731c-0.782,0.486 -1.173,1.129 -1.173,1.927c0,0.657 0.253,1.213 0.758,1.668c0.505,0.455 1.375,0.812 2.611,1.07l4.707,0.937c2.536,0.512 4.422,1.352 5.66,2.519c1.238,1.167 1.856,2.687 1.856,4.559c0,1.717 -0.501,3.22 -1.503,4.508c-1.002,1.288 -2.384,2.291 -4.145,3.008c-1.762,0.717 -3.788,1.075 -6.08,1.075Z M105.813,37.852c-1.808,-0 -3.39,-0.395 -4.747,-1.185c-1.357,-0.79 -2.409,-1.923 -3.155,-3.401c-0.747,-1.477 -1.12,-3.237 -1.12,-5.28l0,-16.666l7.028,0l0,15.442c0,1.627 0.422,2.903 1.265,3.829c0.843,0.925 2.006,1.388 3.488,1.388c0.997,0 1.875,-0.216 2.635,-0.649c0.761,-0.433 1.358,-1.061 1.793,-1.884c0.434,-0.823 0.652,-1.807 0.652,-2.954l-0,-15.172l7.039,0l0,26.203l-6.647,0l-0.101,-6.541l0.41,0c-0.694,2.2 -1.745,3.895 -3.153,5.085c-1.408,1.19 -3.204,1.785 -5.387,1.785Z M132.202,22.352l0,15.171l-7.028,0l-0,-26.203l6.636,0l0.112,6.542l-0.421,-0c0.687,-2.186 1.731,-3.877 3.132,-5.074c1.4,-1.197 3.207,-1.796 5.419,-1.796c1.816,0 3.399,0.395 4.748,1.185c1.349,0.79 2.397,1.921 3.143,3.395c0.747,1.474 1.12,3.235 1.12,5.286l-0,16.665l-7.028,0l-0,-15.441c-0,-1.627 -0.42,-2.904 -1.26,-3.829c-0.839,-0.926 -2,-1.388 -3.482,-1.388c-0.989,-0 -1.867,0.216 -2.635,0.649c-0.768,0.433 -1.369,1.057 -1.804,1.872c-0.435,0.815 -0.652,1.803 -0.652,2.966Z" style="fill:#fff;fill-rule:nonzero;"/></svg>